<svg width="925" height="668" viewBox="0 0 925 668" fill="none" xmlns="http://www.w3.org/2000/svg">
<g clip-path="url(#clip0)">
<rect width="925" height="668" fill="white"/>
<path d="M0 192H636V582H0V192Z" fill="#3E3E3E"/>
<path d="M0 144H560V511H0V144Z" fill="#1F1F1F"/>
<path d="M459.944 437.64L473 437.384L473 446.024L460.712 445.64L455.912 445.704L455.848 454.984L455.976 463.368L459.944 463.432L473 463.112L473 471.752L460.712 471.304L431.784 471.752L431.784 462.984L448.808 463.24L448.936 454.408L448.808 445.768L431.784 446.024L431.784 437.192L459.944 437.64ZM461.544 411.125L473 410.741L473 419.381L461.544 418.997L459.112 419.061L431.784 432.181L431.784 422.965L434.664 422.069L450.344 415.093L450.344 414.517L434.92 406.709L431.784 405.493L431.784 396.597L458.792 410.997L461.544 411.125ZM452.712 360.078L458.152 360.142C463.059 360.099 466.856 361.529 469.544 364.43C472.232 367.331 473.576 371.491 473.576 376.91C473.576 382.115 472.275 386.083 469.672 388.814C467.069 391.545 463.336 392.846 458.472 392.718L452.52 392.654L431.784 392.846L431.784 384.142L457.32 384.59C460.435 384.633 462.739 383.971 464.232 382.606C465.725 381.241 466.472 379.171 466.472 376.398C466.472 370.851 463.571 368.099 457.768 368.142L431.784 368.59L431.784 359.758L452.712 360.078ZM460.264 316.897L473 316.577L473 325.921L445.096 342.753L445.096 343.265L458.792 343.329L473 343.073L473 350.945L460.84 350.497L431.784 350.881L431.784 341.601L459.688 324.769L459.688 324.193L432.168 324.385L431.656 316.385L460.264 316.897ZM431.272 288.704C431.272 284.224 432.104 280.192 433.768 276.608L441.576 278.464L441.704 279.296C440.509 281.387 439.656 283.264 439.144 284.928C438.589 286.549 438.312 288.299 438.312 290.176C438.312 293.973 439.443 296.747 441.704 298.496C443.965 300.245 447.677 301.12 452.84 301.12C456.253 301.12 458.963 300.757 460.968 300.032C462.973 299.264 464.445 298.091 465.384 296.512C466.28 294.933 466.728 292.843 466.728 290.24C466.728 289.344 466.664 288.512 466.536 287.744C466.408 286.933 466.173 285.952 465.832 284.8L462.312 284.672L455.784 284.8L455.208 276.8L460.968 276.992L471.016 276.8C472.723 281.92 473.576 286.635 473.576 290.944C473.576 297.344 471.827 302.165 468.328 305.408C464.829 308.608 459.816 310.208 453.288 310.208C446.163 310.208 440.723 308.352 436.968 304.64C433.171 300.885 431.272 295.573 431.272 288.704ZM459.432 257.686L465.256 257.558C467.688 257.558 469.757 257.963 471.464 258.774C473.171 259.585 474.685 260.907 476.008 262.742C477.331 264.534 478.589 267.009 479.784 270.166L475.176 272.79L474.408 272.79C473.043 270.145 471.699 268.289 470.376 267.222C469.011 266.113 467.261 265.558 465.128 265.558L460.264 265.558L438.184 265.942L438.376 272.726L437.736 273.366L431.784 272.918L431.784 257.238L459.432 257.686ZM452.712 215.64L458.152 215.704C463.059 215.662 466.856 217.091 469.544 219.992C472.232 222.894 473.576 227.054 473.576 232.472C473.576 237.678 472.275 241.646 469.672 244.376C467.069 247.107 463.336 248.408 458.472 248.28L452.52 248.216L431.784 248.408L431.784 239.704L457.32 240.152C460.435 240.195 462.739 239.534 464.232 238.168C465.725 236.803 466.472 234.734 466.472 231.96C466.472 226.414 463.571 223.662 457.768 223.704L431.784 224.152L431.784 215.32L452.712 215.64ZM460.264 172.46L473 172.14L473 181.484L445.096 198.316L445.096 198.828L458.792 198.892L473 198.636L473 206.508L460.84 206.06L431.784 206.444L431.784 197.164L459.688 180.332L459.688 179.756L432.168 179.948L431.656 171.948L460.264 172.46ZM515.24 252.106C521.597 247.541 528.253 242.271 535.208 236.298L536.168 236.426C536.765 238.815 537.256 241.631 537.64 244.874L537.128 245.898C529.704 251.487 522.579 256.458 515.752 260.81L523.944 260.938L537 260.618L537 269.258L524.712 268.81L495.784 269.258L495.784 260.49L514.92 260.81L499.752 249.226L495.784 246.858L495.784 237.514L515.24 252.106ZM523.944 223.563L537 223.179L537 231.883L524.712 231.435L495.784 231.883L495.784 223.051L523.944 223.563ZM537 170.064L537 177.744L524.52 178.384L508.648 179.856L508.648 180.496L532.648 189.712L532.648 196.432L508.648 204.816L508.648 205.392L523.688 206.992L537 207.888L537 215.184L495.784 211.024L495.784 201.04L501.864 199.376L521.384 192.848L521.384 192.272L501.864 185.424L495.784 183.568L495.784 173.776L537 170.064Z" fill="white"/>
<path d="M0 0L318 274" stroke="white" stroke-width="13"/>
</g>
<defs>
<clipPath id="clip0">
<rect width="925" height="668" fill="white"/>
</clipPath>
</defs>
</svg>
